inDegrees=yes
name=ik_XSDot_20210820_202113_orientations
DataType=double
version=3
OpenSimVersion=4.5
endheader
time	pelvis_tilt	pelvis_list	pelvis_rotation	pelvis_tx	pelvis_ty	pelvis_tz	hip_flexion_r	hip_adduction_r	hip_rotation_r	knee_angle_r	knee_angle_r_beta	ankle_angle_r	subtalar_angle_r	mtp_angle_r	hip_flexion_l	hip_adduction_l	hip_rotation_l	knee_angle_l	knee_angle_l_beta	ankle_angle_l	subtalar_angle_l	mtp_angle_l	lumbar_extension	lumbar_bending	lumbar_rotation	arm_flex_r	arm_add_r	arm_rot_r	elbow_flex_r	pro_sup_r	wrist_flex_r	wrist_dev_r	arm_flex_l	arm_add_l	arm_rot_l	elbow_flex_l	pro_sup_l	wrist_flex_l	wrist_dev_l
0.9500000000000006	-0.2717105344323948	-0.139563939587488	-9.450310223049309	0	0.9399999999999999	0	0.2642806385433444	0.2088506086184967	-0.3450893223012417	0.3043280790581894	0.005311526985835009	-2.489444600944791	0	0	13.32758450013475	1.610885576730069	1.192767337169106	11.97772985220095	0.2090508228353203	-2.489444600944791	0	0	0	0	0	0	-1.176897506638483	0	54.16193759156973	51.86581324677999	0	0	0	-1.176897506638483	0	54.16193759156973	51.86581324677999	0	0
0.9600000000000006	-0.2730083510795075	-0.1463532456675414	-9.440474727491059	0	0.9399999999999999	0	0.2537389689451114	0.242890327678954	-0.3496997599695624	0.3042285297052788	0.005309789521858489	-2.491945519390099	0	0	13.42062648760261	1.747492622522194	1.085618081121396	12.0784010258068	0.2108078662765892	-2.491945519390099	0	0	0	0	0	0	-1.178483436026373	0	54.16689494533666	51.86157054652723	0	0	0	-1.178483436026373	0	54.16689494533666	51.86157054652723	0	0
0.9700000000000006	-0.2502638544016214	-0.12909220484738	-9.442489280809319	0	0.9399999999999999	0	0.2135802835077007	0.2610790463870667	-0.3428666352216459	0.3026424136270445	0.00528210657397448	-2.496728075886476	0	0	13.3881421922178	1.984634651929869	0.9183183769270691	12.12354137092198	0.2115957139243357	-2.496728075886476	0	0	0	0	0	0	-1.181410679450819	0	54.17610445390623	51.85357051645693	0	0	0	-1.181410679450819	0	54.17610445390623	51.85357051645693	0	0
0.9800000000000006	-0.3000770476008464	-0.08314850651551542	-9.430899881986507	0	0.9399999999999999	0	0.2696937579273409	0.2533716811851519	-0.3473799027936755	0.3072069708473538	0.005361773126364559	-2.505683611831419	0	0	13.15018287209583	2.197038013476196	0.7914516747124098	11.8907024387306	0.2075319079307683	-2.505683611831419	0	0	0	0	0	0	-1.187236592395209	0	54.19419345716941	51.83825912144209	0	0	0	-1.187236592395209	0	54.19419345716941	51.83825912144209	0	0
0.9900000000000007	-0.2157465683152385	-0.07007867072007955	-9.418741656302775	0	0.9399999999999999	0	0.1704918384574938	0.2353040952494108	-0.3575524667490552	0.308165421794319	0.005378501251107958	-2.534437743049005	0	0	12.73731944260043	2.238228383102439	0.7613605392203322	11.57797980423148	0.2020738683132478	-2.534437743049005	0	0	0	0	0	0	-1.201698155856594	0	54.24421987741734	51.79123505299816	0	0	0	-1.201698155856594	0	54.24421987741734	51.79123505299816	0	0
1.000000000000001	-0.2673967330355369	-0.0362078866966229	-9.436453798204719	0	0.9399999999999999	0	0.2269392567539329	0.2329446276408068	-0.3303801572253076	0.3185759906241873	0.005560199954194655	-2.541983014284804	0	0	11.80558954326155	2.204123546815409	0.7066554608500801	10.64700028927236	0.1858252105085913	-2.541983014284804	0	0	0	0	0	0	-1.206597106919856	0	54.25946557563584	51.77831513464111	0	0	0	-1.206597106919856	0	54.25946557563584	51.77831513464111	0	0
1.010000000000001	-0.2096302366433253	-0.004151779327666241	-9.42423701994225	0	0.9399999999999999	0	0.1501442766813754	0.1971736486606633	-0.3365165387873806	0.3151610212715967	0.005500597495137248	-2.551248035458196	0	0	10.34338883245479	2.275437744010994	0.7158778176474699	9.335080490185677	0.1629278904924263	-2.551248035458196	0	0	0	0	0	0	-1.212586173808204	0	54.27813145059321	51.76246479212805	0	0	0	-1.212586173808204	0	54.27813145059321	51.76246479212805	0	0
1.020000000000001	-0.1761753265364046	0.02120317864329758	-9.416512366745039	0	0.9399999999999999	0	0.106770890327539	0.164632516073314	-0.3411919656089661	0.3185725223361366	0.005560139421148761	-2.561572561352508	0	0	8.472006235408754	2.062690116527058	0.6816512127792562	7.665169556871937	0.13378244649105	-2.561572561352508	0	0	0	0	0	0	-1.219257694461899	0	54.29893216880019	51.74479750417445	0	0	0	-1.219257694461899	0	54.29893216880019	51.74479750417445	0	0
1.030000000000001	-0.1797521361459674	0.06172001997163867	-9.426374169247687	0	0.9399999999999999	0	0.1000146484475968	0.1297197098263129	-0.3220485400936988	0.3165760974376221	0.00552529523340089	-2.57089889272065	0	0	6.46825977116106	1.51500676719864	0.4920996339746015	5.897486700953493	0.1029305605242167	-2.57089889272065	0	0	0	0	0	0	-1.225310130407472	0	54.31778741932816	51.72881140373482	0	0	0	-1.225310130407472	0	54.31778741932816	51.72881140373482	0	0
1.040000000000001	-0.1276288437957557	0.1187591965858542	-9.38877034283459	0	0.9399999999999999	0	0.04261980246032834	0.07236346933945396	-0.365086569594201	0.3250297792756804	0.005672839815391054	-2.577926523455331	0	0	5.32260166615758	1.310952360040407	0.437191246614096	4.942430231053586	0.08626168058198916	-2.577926523455331	0	0	0	0	0	0	-1.229875470964391	0	54.33200858671631	51.71675895206911	0	0	0	-1.229875470964391	0	54.33200858671631	51.71675895206911	0	0
1.050000000000001	-0.1169544087991706	0.1224714226016807	-9.401750633501145	0	0.9399999999999999	0	0.0212909572655377	0.06824451244338325	-0.3429154371975925	0.3327687542297249	0.005807910409068507	-2.587380806137679	0	0	3.092250888959229	0.7274629645579678	0.2747338832608566	3.007962090888663	0.0524988422611801	-2.587380806137679	0	0	0	0	0	0	-1.236046273729997	0	54.35121348404099	51.70051517762866	0	0	0	-1.236046273729997	0	54.35121348404099	51.70051517762866	0	0
1.060000000000001	-0.06964517018535463	0.159446420634025	-9.371508198908311	0	0.9399999999999999	0	-0.03543152579811341	0.01391524008276209	-0.3695693519592219	0.3384720665939023	0.005907451988093105	-2.596237534759414	0	0	1.090428856904637	0.1716376122003707	0.1098552342369797	1.379693263869833	0.02408019012211551	-2.596237534759414	0	0	0	0	0	0	-1.241827341102702	0	54.3692100214145	51.68529266225995	0	0	0	-1.241827341102702	0	54.3692100214145	51.68529266225995	0	0
1.070000000000001	-0.0726937704488502	0.1900246551417619	-9.354079017404962	0	0.9399999999999999	0	-0.03136435343278388	-0.0348186726030159	-0.3765946924333897	0.3451794176609094	0.006024517348299533	-2.601443946897904	0	0	-0.3210045646924645	-0.4169291384523874	-0.1247679159160469	0.4214208857049692	0.007355181992222418	-2.601443946897904	0	0	0	0	0	0	-1.245224725964204	0	54.37978694758188	51.67634410249238	0	0	0	-1.245224725964204	0	54.37978694758188	51.67634410249238	0	0
1.080000000000001	-0.04171879752991667	0.2126793688613336	-9.328230855059374	0	0.9399999999999999	0	-0.07531913277202132	-0.06943600546905641	-0.3999118929502425	0.3528369300853083	0.006158166152617666	-2.606029313433904	0	0	-1.208495253079164	-1.119200259156608	-0.4177671530794326	0.1811627925334862	0.003161887211816735	-2.606029313433904	0	0	0	0	0	0	-1.248218470563822	0	54.38910904321862	51.66845922737951	0	0	0	-1.248218470563822	0	54.38910904321862	51.66845922737951	0	0
1.090000000000001	0.008881087736223807	0.2153507030920532	-9.308436127490307	0	0.9399999999999999	0	-0.1480320990621316	-0.1046213355822381	-0.4137759157992972	0.3523094043423498	0.006148959091514011	-2.614019299284674	0	0	-1.541324309299577	-1.394708910947542	-0.5094021360266849	0.1488808654243214	0.002598461294872994	-2.614019299284674	0	0	0	0	0	0	-1.253538836113399	0	54.40559100430434	51.65463800996451	0	0	0	-1.253538836113399	0	54.40559100430434	51.65463800996451	0	0
1.100000000000001	-0.02265921610668533	0.2343462859801519	-9.288863823630214	0	0.9399999999999999	0	-0.1181766157134168	-0.1383389534252872	-0.4252177523344589	0.3547701987319707	0.0061919080558275	-2.616909802052281	0	0	-1.736274854284891	-1.649414826707292	-0.6367868818760175	0.1309255841728981	0.002285082518914048	-2.616909802052281	0	0	0	0	0	0	-1.255510930523245	0	54.41164724768961	51.64961515373506	0	0	0	-1.255510930523245	0	54.41164724768961	51.64961515373506	0	0
1.110000000000001	-0.03681513787921208	0.1963373104827897	-9.272352337601481	0	0.9399999999999999	0	-0.1173268686231803	-0.102871787731092	-0.4216641474530773	0.3604893958436701	0.006291726875997205	-2.627518740020878	0	0	-1.662962876902734	-1.170076680502834	-0.6738232215233396	0.1398628946909637	0.002441068013727414	-2.627518740020878	0	0	0	0	0	0	-1.262533773897595	0	54.43348010697824	51.63125249172833	0	0	0	-1.262533773897595	0	54.43348010697824	51.63125249172833	0	0
1.120000000000001	0.01881271941489216	0.2258700117859967	-9.25712548565947	0	0.9399999999999999	0	-0.198377770720105	-0.1628461526622344	-0.4351669696907967	0.357523602258612	0.006239964013003415	-2.648194009103462	0	0	-1.566001336082913	-0.4371066503317939	-0.7100150406756597	0.1614093398480443	0.002817124423818856	-2.648194009103462	0	0	0	0	0	0	-1.276229515265128	0	54.47605636414104	51.59545309148717	0	0	0	-1.276229515265128	0	54.47605636414104	51.59545309148717	0	0
1.130000000000001	0.002445241607044071	0.2327342800370327	-9.253135674725687	0	0.9399999999999999	0	-0.184965541985453	-0.1894342400110388	-0.4333933002710474	0.3693107698884976	0.006445688897629416	-2.654232748007829	0	0	-1.460058077580096	-0.4254276085737612	-0.7673117429266471	0.184996829663101	0.003228803783372224	-2.654232748007829	0	0	0	0	0	0	-1.280049635943497	0	54.48811573341107	51.58510130653695	0	0	0	-1.280049635943497	0	54.48811573341107	51.58510130653695	0	0
